<!-- icon666.com - MILLIONS OF FREE VECTOR ICONS --><svg id="Layer_1" enable-background="new 0 0 100 100" viewBox="0 0 100 100" xmlns="http://www.w3.org/2000/svg"><g><path d="m64.83 36.52h-40.4l8.76-8.76c.98-.98.98-2.56 0-3.54s-2.56-.98-3.54 0l-12.92 12.93c-.47.47-.73 1.1-.73 1.77s.26 1.3.73 1.77l12.91 12.91c.49.49 1.13.73 1.77.73s1.28-.24 1.77-.73c.98-.98.98-2.56 0-3.54l-8.54-8.54h40.18c7.55 0 14.17 7 14.17 14.99s-6.61 14.99-14.16 14.99c-1.38 0-2.5 1.12-2.5 2.5s1.12 2.5 2.5 2.5c10.39 0 19.17-9.15 19.17-19.99s-8.78-19.99-19.17-19.99z"></path></g></svg>