<?xml version="1.0" encoding="UTF-8" standalone="no"?>
<!-- Created with Inkscape (http://www.inkscape.org/) -->

<svg
   width="512mm"
   height="512mm"
   viewBox="0 0 512 512"
   version="1.1"
   id="svg1"
   xml:space="preserve"
   inkscape:export-filename="lightTheme.svg"
   inkscape:export-xdpi="96"
   inkscape:export-ydpi="96"
   xmlns:inkscape="http://www.inkscape.org/namespaces/inkscape"
   xmlns:sodipodi="http://sodipodi.sourceforge.net/DTD/sodipodi-0.dtd"
   xmlns="http://www.w3.org/2000/svg"
   xmlns:svg="http://www.w3.org/2000/svg"><sodipodi:namedview
     id="namedview1"
     pagecolor="#ffffff"
     bordercolor="#000000"
     borderopacity="0.25"
     inkscape:showpageshadow="2"
     inkscape:pageopacity="0.0"
     inkscape:pagecheckerboard="0"
     inkscape:deskcolor="#d1d1d1"
     inkscape:document-units="mm"><inkscape:page
       x="0"
       y="0"
       width="512"
       height="512"
       id="page2"
       margin="0"
       bleed="0" /></sodipodi:namedview><defs
     id="defs1" /><g
     inkscape:label="Слой 1"
     inkscape:groupmode="layer"
     id="layer1"><path
       style="fill:#ffffff;fill-opacity:1;stroke-width:3.95842"
       d="m 287.89044,490.54953 c -1.91267,-0.97516 -4.74045,-3.42875 -6.284,-5.45245 l -2.80648,-3.67947 V 458.6334 c 0,-25.07463 0.0768,-25.4016 7.21102,-30.72809 4.49748,-3.35785 13.80793,-3.02744 18.64461,0.66165 6.52376,4.97589 7.13538,7.56197 7.13538,30.16995 0,22.52438 -0.62361,25.20316 -6.99921,30.06609 -4.56018,3.47818 -11.9975,4.24675 -16.90132,1.74653 z M 134.21613,426.89108 c -7.00188,-3.04985 -10.9088,-11.02306 -9.41382,-19.21165 0.59727,-3.2715 3.28452,-6.49252 16.08838,-19.28408 12.03659,-12.025 16.28918,-15.62527 19.60206,-16.59523 12.14405,-3.55557 23.96576,8.2752 20.3741,20.38973 -0.96154,3.24322 -4.5906,7.62028 -15.54789,18.75247 -7.86147,7.98691 -15.81017,15.17422 -17.66378,15.9718 -4.19174,1.80361 -9.2653,1.79495 -13.43905,-0.0238 z M 275.1343,390.09711 c -19.52401,-3.08707 -38.93936,-10.64714 -55.07516,-21.44555 -10.47339,-7.00899 -28.87477,-25.33783 -35.73548,-35.59464 -14.85968,-22.21529 -23.34863,-49.63164 -23.34863,-75.40795 0,-19.03099 5.64724,-42.83532 14.18353,-59.78665 12.68721,-25.19419 35.38972,-47.71172 61.12378,-60.62575 18.20566,-9.13607 43.22179,-14.3437 63.98795,-13.32041 35.24303,1.73666 64.43783,14.61793 89.15802,39.33813 26.42893,26.42894 39.08202,56.9899 39.08202,94.39468 0,17.83041 -1.4789,27.23567 -6.78874,43.17368 -11.15328,33.47776 -37.67654,62.9807 -70.4102,78.32021 -22.93847,10.74933 -51.49865,14.85627 -76.17709,10.95425 z m 3.142,-132.35525 v -99.40373 l -6.4107,1.49551 c -24.64281,5.74878 -49.27497,23.61113 -62.50374,45.32544 -34.73766,57.02001 -5.18258,131.65004 59.12221,149.29042 5.0977,1.39843 9.38638,2.57713 9.53038,2.61934 0.14409,0.0422 0.26205,-44.65494 0.26205,-99.32698 z m 58.04854,91.55592 c 10.46536,-4.65685 20.60763,-11.88 29.9655,-21.34096 13.48698,-13.63554 22.17239,-29.13062 26.86827,-47.93388 2.48755,-9.96074 2.48755,-34.7872 0,-44.74795 -4.51157,-18.06522 -13.17506,-33.88798 -25.77701,-47.07829 -12.93482,-13.53871 -28.07963,-22.48522 -46.42649,-27.42558 l -9.16414,-2.46768 v 99.34553 99.34552 l 9.16414,-2.46768 c 5.0403,-1.35722 11.95666,-3.71029 15.36973,-5.22903 z M 70.045216,272.64493 c -1.912642,-0.94251 -4.740442,-3.36942 -6.283998,-5.39312 -3.674351,-4.81732 -3.998138,-14.13711 -0.64708,-18.62549 5.23544,-7.0123 5.88877,-7.18019 29.311867,-7.53254 24.097095,-0.36248 26.531145,0.17005 31.689665,6.93322 4.02928,5.28265 4.02928,13.96129 0,19.24394 -4.98791,6.53949 -7.54172,7.13832 -30.328213,7.1115 -16.613176,-0.0194 -20.891329,-0.33262 -23.742241,-1.73751 z M 157.30937,141.99714 c -1.7281,-0.77581 -9.58098,-7.94468 -17.45085,-15.93083 -15.36983,-15.59689 -16.63181,-17.79869 -15.04615,-26.251001 0.9672,-5.155632 7.23196,-11.420395 12.38759,-12.387596 8.50688,-1.595902 10.61798,-0.367025 26.64002,15.507077 15.91905,15.77205 17.665,18.52485 16.77235,26.44445 -1.23481,10.95522 -12.91677,17.28068 -23.30296,12.6179 z M 287.89044,88.373728 c -1.91267,-0.975161 -4.74045,-3.428774 -6.284,-5.452478 l -2.80648,-3.679457 V 56.45758 c 0,-25.074647 0.0768,-25.401582 7.21102,-30.728099 4.49748,-3.357853 13.80793,-3.027439 18.64461,0.661666 6.52376,4.975904 7.13538,7.561952 7.13538,30.169938 0,22.524389 -0.62361,25.203177 -6.99921,30.066084 -4.56018,3.478203 -11.9975,4.246767 -16.90132,1.746559 z"
       id="path1" /><path
       style="fill:#ffffff;fill-opacity:1;stroke:none;stroke-width:1.94376;stroke-opacity:1"
       d="m 1181.4246,597.06369 c -6.5082,6.50296 -1.7896,18.43191 -3.7061,26.81959 -2.0226,241.26882 -0.6418,482.55532 -1.0583,723.83132 6.2341,7.4362 18.8771,-2.9587 27.6452,-3.1935 63.1601,-16.1228 123.1918,-46.4508 169.8131,-92.5358 61.385,-57.8228 107.0261,-135.3379 117.7682,-219.7326 3.6773,-48.93416 5.6306,-99.05476 -4.905,-147.29657 -31.7997,-124.73446 -127.8363,-233.63364 -251.6949,-272.54412 -17.7679,-5.59178 -35.9036,-11.11936 -53.8622,-15.34832 z"
       id="path8"
       transform="scale(0.26458333)" /></g></svg>
