<svg width="158" height="55" viewBox="0 0 158 55" fill="none" xmlns="http://www.w3.org/2000/svg">
<path d="M36.4565 9.16L36.4325 25H34.6325L25.0565 12.04L25.0325 25H23.2085V9.16H25.0085L34.6085 22.144V9.16H36.4565ZM55.5277 25H53.5837L51.3757 20.104H43.2877L41.0797 25H39.1357L46.3357 9.16H48.3277L55.5277 25ZM43.9837 18.52H50.6797L47.3197 11.104L43.9837 18.52ZM61.7743 25L54.8623 9.16H56.8783L62.7583 22.96L68.6623 9.16H70.6783L63.7663 25H61.7743ZM75.1168 9.16V29.272H73.4368V9.16H75.1168ZM83.0218 25L77.5498 9.16H79.4938L84.1498 22.912L88.6378 9.16H90.6058L95.0938 22.912L99.7258 9.16H101.694L96.2218 25H93.9898L89.6218 11.56L85.2538 25H83.0218ZM117.168 25H115.224L113.016 20.104H104.928L102.72 25H100.776L107.976 9.16H109.968L117.168 25ZM105.624 18.52H112.32L108.96 11.104L105.624 18.52ZM121.689 23.296H129.081V25H119.865V9.16H121.689V23.296ZM6.31213 50.16C5.14946 50.16 4.17879 49.9307 3.40013 49.472C2.62146 49.0027 2.03479 48.3573 1.64013 47.536C1.24546 46.7147 1.04813 45.7707 1.04813 44.704C1.04813 43.648 1.24546 42.7093 1.64013 41.888C2.03479 41.0667 2.62146 40.4213 3.40013 39.952C4.17879 39.4827 5.14946 39.248 6.31213 39.248C7.46413 39.248 8.42946 39.4827 9.20813 39.952C9.98679 40.4213 10.5735 41.0667 10.9681 41.888C11.3628 42.7093 11.5601 43.648 11.5601 44.704C11.5601 45.7707 11.3628 46.7147 10.9681 47.536C10.5735 48.3573 9.98679 49.0027 9.20813 49.472C8.42946 49.9307 7.46413 50.16 6.31213 50.16ZM6.31213 49.024C7.21879 49.024 7.96546 48.8427 8.55212 48.48C9.14946 48.1067 9.59213 47.5947 9.88013 46.944C10.1788 46.2933 10.3281 45.5467 10.3281 44.704C10.3281 43.872 10.1788 43.1307 9.88013 42.48C9.59213 41.8293 9.14946 41.3227 8.55212 40.96C7.96546 40.5867 7.21879 40.4 6.31213 40.4C5.39479 40.4 4.63746 40.5867 4.04013 40.96C3.45346 41.3227 3.01613 41.8293 2.72813 42.48C2.44013 43.1307 2.29613 43.872 2.29613 44.704C2.29613 45.5467 2.44013 46.2933 2.72813 46.944C3.01613 47.5947 3.45346 48.1067 4.04013 48.48C4.63746 48.8427 5.39479 49.024 6.31213 49.024ZM17.8973 39.44C18.9639 39.44 19.7799 39.552 20.3453 39.776C20.9106 40 21.2999 40.3307 21.5133 40.768C21.7266 41.1947 21.8333 41.7227 21.8333 42.352C21.8333 42.704 21.7799 43.0347 21.6733 43.344C21.5666 43.6533 21.3853 43.9253 21.1293 44.16C20.8839 44.3947 20.5373 44.5653 20.0893 44.672C20.7719 44.8427 21.2413 45.1467 21.4973 45.584C21.7639 46.0107 21.8973 46.5013 21.8973 47.056C21.8973 47.6853 21.7853 48.2187 21.5613 48.656C21.3373 49.0933 20.9373 49.4293 20.3612 49.664C19.7853 49.888 18.9639 50 17.8973 50H13.6573V39.44H17.8973ZM14.8733 48.928H17.7533C18.5533 48.928 19.1613 48.8587 19.5773 48.72C19.9933 48.5813 20.2759 48.3733 20.4253 48.096C20.5746 47.8187 20.6493 47.472 20.6493 47.056C20.6493 46.6933 20.5746 46.368 20.4253 46.08C20.2759 45.792 19.9933 45.568 19.5773 45.408C19.1719 45.2373 18.5639 45.152 17.7533 45.152H14.8733V48.928ZM14.8733 44.096H17.7533C18.5533 44.096 19.1559 44.0213 19.5613 43.872C19.9773 43.7227 20.2546 43.52 20.3933 43.264C20.5319 42.9973 20.6013 42.6933 20.6013 42.352C20.6013 41.9467 20.5319 41.6053 20.3933 41.328C20.2546 41.0507 19.9773 40.848 19.5613 40.72C19.1559 40.5813 18.5533 40.512 17.7533 40.512H14.8733V44.096ZM25.4514 48.864H30.3794V50H24.2354V39.44H25.4514V48.864ZM33.3576 50H32.1416V39.44H33.3576V50ZM39.7584 50L35.1504 39.44H36.4944L40.4144 48.64L44.3504 39.44H45.6944L41.0864 50H39.7584ZM48.7014 50H47.4854V39.44H48.7014V50ZM56.0621 50.16C54.8995 50.16 53.9288 49.9307 53.1501 49.472C52.3715 49.0027 51.7848 48.3573 51.3901 47.536C50.9955 46.7147 50.7981 45.7707 50.7981 44.704C50.7981 43.648 50.9955 42.7093 51.3901 41.888C51.7848 41.0667 52.3715 40.4213 53.1501 39.952C53.9288 39.4827 54.8995 39.248 56.0621 39.248C57.2141 39.248 58.1795 39.4827 58.9581 39.952C59.7368 40.4213 60.3235 41.0667 60.7181 41.888C61.1128 42.7093 61.3101 43.648 61.3101 44.704C61.3101 45.7707 61.1128 46.7147 60.7181 47.536C60.3235 48.3573 59.7368 49.0027 58.9581 49.472C58.1795 49.9307 57.2141 50.16 56.0621 50.16ZM56.0621 49.024C56.9688 49.024 57.7155 48.8427 58.3021 48.48C58.8995 48.1067 59.3421 47.5947 59.6301 46.944C59.9288 46.2933 60.0781 45.5467 60.0781 44.704C60.0781 43.872 59.9288 43.1307 59.6301 42.48C59.3421 41.8293 58.8995 41.3227 58.3021 40.96C57.7155 40.5867 56.9688 40.4 56.0621 40.4C55.1448 40.4 54.3875 40.5867 53.7901 40.96C53.2035 41.3227 52.7661 41.8293 52.4781 42.48C52.1901 43.1307 52.0461 43.872 52.0461 44.704C52.0461 45.5467 52.1901 46.2933 52.4781 46.944C52.7661 47.5947 53.2035 48.1067 53.7901 48.48C54.3875 48.8427 55.1448 49.024 56.0621 49.024ZM72.2393 39.44L72.2233 50H71.0233L64.6393 41.36L64.6233 50H63.4073V39.44H64.6073L71.0073 48.096V39.44H72.2393ZM81.8654 40.576H76.2014V43.968H81.5454V45.024H76.2014V48.864H82.1854V50H74.9854V39.44H81.8654V40.576ZM112.23 44.528C112.23 44.6347 112.225 44.7413 112.214 44.848C112.171 45.8933 111.969 46.8267 111.606 47.648C111.254 48.4587 110.726 49.0987 110.022 49.568C109.318 50.0267 108.427 50.256 107.35 50.256C106.262 50.256 105.355 50.016 104.63 49.536C103.915 49.056 103.377 48.4 103.014 47.568C102.651 46.7253 102.47 45.7707 102.47 44.704C102.47 43.6267 102.667 42.672 103.062 41.84C103.457 40.9973 104.027 40.3413 104.774 39.872C105.531 39.392 106.443 39.152 107.51 39.152C108.203 39.152 108.833 39.2587 109.398 39.472C109.963 39.6747 110.454 39.968 110.87 40.352C111.286 40.7253 111.622 41.1733 111.878 41.696L110.662 42.032C110.363 41.488 109.947 41.0667 109.414 40.768C108.881 40.4587 108.246 40.304 107.51 40.304C106.689 40.304 105.995 40.4907 105.43 40.864C104.875 41.2373 104.449 41.76 104.15 42.432C103.862 43.0933 103.718 43.8507 103.718 44.704C103.718 45.5467 103.846 46.2987 104.102 46.96C104.358 47.6213 104.753 48.1493 105.286 48.544C105.819 48.928 106.507 49.12 107.35 49.12C108.065 49.12 108.673 48.9707 109.174 48.672C109.675 48.3733 110.07 47.9573 110.358 47.424C110.657 46.8907 110.843 46.2773 110.918 45.584H106.534V44.528H112.23ZM121.273 42.704C121.273 42.288 121.204 41.9147 121.065 41.584C120.926 41.2533 120.654 40.992 120.249 40.8C119.844 40.608 119.236 40.512 118.425 40.512H115.545V44.912H118.425C119.236 44.912 119.844 44.816 120.249 44.624C120.654 44.432 120.926 44.1707 121.065 43.84C121.204 43.4987 121.273 43.12 121.273 42.704ZM114.329 50V39.44H118.569C119.636 39.44 120.452 39.584 121.017 39.872C121.582 40.1493 121.972 40.5333 122.185 41.024C122.398 41.5147 122.505 42.0747 122.505 42.704C122.505 43.2587 122.425 43.7653 122.265 44.224C122.105 44.672 121.812 45.0453 121.385 45.344C120.969 45.632 120.372 45.824 119.593 45.92L122.249 50H120.905L118.297 45.968H115.545V50H114.329ZM129.453 50.16C128.29 50.16 127.319 49.9307 126.541 49.472C125.762 49.0027 125.175 48.3573 124.781 47.536C124.386 46.7147 124.189 45.7707 124.189 44.704C124.189 43.648 124.386 42.7093 124.781 41.888C125.175 41.0667 125.762 40.4213 126.541 39.952C127.319 39.4827 128.29 39.248 129.453 39.248C130.605 39.248 131.57 39.4827 132.349 39.952C133.127 40.4213 133.714 41.0667 134.109 41.888C134.503 42.7093 134.701 43.648 134.701 44.704C134.701 45.7707 134.503 46.7147 134.109 47.536C133.714 48.3573 133.127 49.0027 132.349 49.472C131.57 49.9307 130.605 50.16 129.453 50.16ZM129.453 49.024C130.359 49.024 131.106 48.8427 131.693 48.48C132.29 48.1067 132.733 47.5947 133.021 46.944C133.319 46.2933 133.469 45.5467 133.469 44.704C133.469 43.872 133.319 43.1307 133.021 42.48C132.733 41.8293 132.29 41.3227 131.693 40.96C131.106 40.5867 130.359 40.4 129.453 40.4C128.535 40.4 127.778 40.5867 127.181 40.96C126.594 41.3227 126.157 41.8293 125.869 42.48C125.581 43.1307 125.437 43.872 125.437 44.704C125.437 45.5467 125.581 46.2933 125.869 46.944C126.157 47.5947 126.594 48.1067 127.181 48.48C127.778 48.8427 128.535 49.024 129.453 49.024ZM141.294 50.256C140.227 50.256 139.337 50.0427 138.622 49.616C137.918 49.1893 137.39 48.5867 137.038 47.808C136.686 47.0187 136.51 46.0907 136.51 45.024V39.44H137.742V45.024C137.742 45.8667 137.865 46.5973 138.11 47.216C138.366 47.824 138.755 48.2933 139.278 48.624C139.801 48.9547 140.473 49.12 141.294 49.12C142.105 49.12 142.771 48.9547 143.294 48.624C143.817 48.2933 144.201 47.824 144.446 47.216C144.702 46.5973 144.83 45.8667 144.83 45.024V39.44H146.062V45.024C146.062 46.0907 145.886 47.0187 145.534 47.808C145.182 48.5867 144.649 49.1893 143.934 49.616C143.23 50.0427 142.35 50.256 141.294 50.256ZM152.772 39.44C153.839 39.44 154.655 39.584 155.22 39.872C155.786 40.1493 156.175 40.5333 156.388 41.024C156.602 41.5147 156.708 42.0747 156.708 42.704C156.708 43.3333 156.602 43.8987 156.388 44.4C156.175 44.8907 155.786 45.2747 155.22 45.552C154.655 45.8293 153.839 45.968 152.772 45.968H149.748V50H148.532V39.44H152.772ZM152.628 40.512H149.748V44.912H152.628C153.439 44.912 154.047 44.816 154.452 44.624C154.858 44.432 155.13 44.1707 155.268 43.84C155.407 43.4987 155.476 43.12 155.476 42.704C155.476 42.288 155.407 41.9147 155.268 41.584C155.13 41.2533 154.858 40.992 154.452 40.8C154.047 40.608 153.439 40.512 152.628 40.512Z" fill="white"/>
<line x1="25.75" y1="6" x2="25.75" y2="33" stroke="black" stroke-width="1.5"/>
<line x1="148" y1="34.7" x2="138" y2="34.7" stroke="black" stroke-width="1.4"/>
<line x1="33.75" y1="9" x2="33.75" y2="25" stroke="black" stroke-width="1.5"/>
<line x1="97.1566" y1="11.0012" x2="92.9683" y2="27.2496" stroke="black" stroke-width="2"/>
<line x1="46.6828" y1="14.3104" x2="41.6828" y2="25.3104" stroke="black" stroke-width="1.5"/>
<line x1="107.892" y1="15.3983" x2="102.687" y2="27.3005" stroke="black" stroke-width="1.5"/>
<line x1="80.008" y1="7.67522" x2="86.4215" y2="27.8709" stroke="black" stroke-width="1.5"/>
</svg>
